<svg xmlns="http://www.w3.org/2000/svg" width="800" height="800" viewBox="0 0 24 24" fill="none" stroke="#323232" stroke-width="2" xmlns:v="https://vecta.io/nano"><path d="M13.717 8.882a6.41 6.41 0 0 0-3.434 0l-.192.056-.002.001c-.033.01-.069.004-.096-.018h0l-.113-.086c-1.188-.893-1.808-.853-1.961-.823h0c-.025.005-.043.023-.052.047-.251.707-.288 1.47-.115 2.184l.032.124c.012.043.005.082-.017.111h0l-.05.067c-.473.649-.728 1.476-.717 2.33 0 3.465 1.804 4.261 3.535 4.496l.036.005c.964.144 1.888.135 2.849-.028l.024-.003c1.739-.211 3.556-.986 3.556-4.47.011-.853-.244-1.681-.717-2.33l-.046-.062c-.025-.033-.033-.075-.023-.113h0l.033-.128a3.8 3.8 0 0 0-.114-2.171c-.013-.037-.032-.055-.058-.06h0c-.154-.03-.771-.068-1.956.823l-.105.08h0c-.032.025-.074.033-.113.021l-.184-.054z" stroke-linejoin="round"/><path d="M3 12c0-7.411 1.588-9 9-9s9 1.588 9 9-1.588 9-9 9-9-1.588-9-9z"/></svg>